<?xml version="1.0" encoding="UTF-8" standalone="no"?><!DOCTYPE svg PUBLIC "-//W3C//DTD SVG 1.1//EN" "http://www.w3.org/Graphics/SVG/1.1/DTD/svg11.dtd"><svg width="100%" height="100%" viewBox="0 0 2134 2134" version="1.1" xmlns="http://www.w3.org/2000/svg" xmlns:xlink="http://www.w3.org/1999/xlink" xml:space="preserve" xmlns:serif="http://www.serif.com/" style="fill-rule:evenodd;clip-rule:evenodd;stroke-linejoin:round;stroke-miterlimit:2;"><path d="M2133.333,416.667l0,1300c0,229.965 -186.702,416.667 -416.667,416.667l-1300,0c-229.965,0 -416.667,-186.702 -416.667,-416.667l0,-1300c0,-229.965 186.702,-416.667 416.667,-416.667l1300,0c229.965,0 416.667,186.702 416.667,416.667Z" style="fill:#0a0a0f;"/><g><text x="149.715px" y="1142.79px" style="font-family:'Arial-Black', 'Arial', sans-serif;font-weight:900;font-size:833.333px;fill:url(#_Linear1);">No<tspan x="1370.418px " y="1142.79px ">x</tspan></text><text x="1089.844px" y="1499.373px" style="font-family:'Arial-Black', 'Arial', sans-serif;font-weight:900;font-size:416.667px;fill:#fff;">P<tspan x="1383.626px 1661.54px " y="1499.373px 1499.373px ">ay</tspan></text><g transform="matrix(50,0,0,50,210.750326,1575.536465)"><path d="M0.024,-0l0.122,-0.693l0.13,0l-0.122,0.693l-0.13,-0Zm0.064,-0.161l0.016,-0.123l0.055,0c0.099,0 0.174,-0.015 0.225,-0.046c0.051,-0.031 0.076,-0.077 0.076,-0.137c0,-0.037 -0.014,-0.065 -0.041,-0.084c-0.027,-0.019 -0.068,-0.029 -0.121,-0.029c-0.07,0 -0.126,0.003 -0.168,0.01l0.016,-0.123c0.037,-0.007 0.087,-0.01 0.149,-0.01c0.099,0 0.174,0.019 0.225,0.056c0.051,0.037 0.076,0.092 0.076,0.164c0,0.106 -0.038,0.186 -0.115,0.241c-0.076,0.055 -0.189,0.082 -0.338,0.082l-0.055,0Z" style="fill:#94f20d;fill-rule:nonzero;"/></g><g transform="matrix(50,0,0,50,240.047201,1575.536465)"><path d="M0.245,0.01c-0.061,0 -0.108,-0.017 -0.142,-0.05c-0.034,-0.033 -0.051,-0.079 -0.051,-0.138c0,-0.11 0.025,-0.196 0.076,-0.257c0.051,-0.062 0.121,-0.092 0.212,-0.092c0.061,0 0.108,0.017 0.142,0.051c0.034,0.034 0.051,0.081 0.051,0.142c0,0.108 -0.025,0.193 -0.076,0.254c-0.051,0.061 -0.121,0.091 -0.212,0.091Zm0.023,-0.125c0.04,0 0.072,-0.017 0.095,-0.052c0.023,-0.035 0.034,-0.084 0.034,-0.146c0,-0.028 -0.007,-0.049 -0.02,-0.065c-0.014,-0.016 -0.033,-0.023 -0.058,-0.023c-0.041,0 -0.073,0.017 -0.096,0.052c-0.023,0.035 -0.035,0.084 -0.035,0.146c0,0.028 0.007,0.049 0.021,0.065c0.014,0.015 0.034,0.023 0.059,0.023Z" style="fill:#94f20d;fill-rule:nonzero;"/></g><g transform="matrix(50,0,0,50,269.344076,1575.536465)"><path d="M0.306,-0l-0.008,-0.242l-0.044,0.015l-0.007,-0.29l0.106,-0.005l0.006,0.396l0.009,0c0.022,-0.049 0.04,-0.106 0.054,-0.171c0.014,-0.065 0.021,-0.139 0.022,-0.221l0.132,0c-0.002,0.111 -0.019,0.21 -0.052,0.296c-0.032,0.086 -0.076,0.16 -0.131,0.221l-0.087,-0Zm0.002,-0.335l0.015,0.164l-0.047,0l0.018,-0.012l-0.096,0.183l-0.114,-0l-0.046,-0.518l0.135,-0.005l0.018,0.396l0.009,0l0.109,-0.209Z" style="fill:#94f20d;fill-rule:nonzero;"/></g><g transform="matrix(50,0,0,50,298.640951,1575.536465)"><path d="M0.302,-0.116c0.023,0 0.049,-0.004 0.075,-0.011c0.027,-0.007 0.052,-0.017 0.077,-0.03l0.034,0.116c-0.031,0.018 -0.064,0.031 -0.099,0.039c-0.035,0.008 -0.069,0.012 -0.101,0.012c-0.072,0 -0.128,-0.018 -0.168,-0.055c-0.04,-0.037 -0.06,-0.088 -0.06,-0.154c0,-0.066 0.013,-0.123 0.04,-0.172c0.026,-0.049 0.063,-0.087 0.111,-0.115c0.047,-0.027 0.103,-0.041 0.166,-0.041c0.053,0 0.095,0.013 0.125,0.04c0.03,0.027 0.045,0.064 0.045,0.111c0,0.063 -0.032,0.109 -0.097,0.138c-0.064,0.029 -0.159,0.045 -0.282,0.047l-0.02,-0.093c0.085,-0.001 0.151,-0.008 0.198,-0.023c0.047,-0.014 0.071,-0.034 0.071,-0.059c0,-0.013 -0.005,-0.022 -0.016,-0.03c-0.011,-0.007 -0.027,-0.011 -0.047,-0.011c-0.033,0 -0.063,0.008 -0.088,0.024c-0.025,0.016 -0.045,0.038 -0.059,0.067c-0.014,0.029 -0.021,0.062 -0.022,0.1c0,0.031 0.011,0.056 0.032,0.073c0.021,0.018 0.05,0.026 0.087,0.026Z" style="fill:#94f20d;fill-rule:nonzero;"/></g><g transform="matrix(50,0,0,50,327.937826,1575.536465)"><path d="M0.095,-0l0.061,-0.345c0.004,-0.019 0.002,-0.033 -0.005,-0.043c-0.007,-0.009 -0.019,-0.014 -0.037,-0.014c-0.025,0 -0.051,0.004 -0.08,0.011l-0.015,-0.118c0.023,-0.006 0.046,-0.011 0.068,-0.014c0.022,-0.003 0.045,-0.005 0.067,-0.005c0.057,0 0.097,0.017 0.118,0.051c0.021,0.034 0.026,0.084 0.015,0.151l-0.057,0.326l-0.134,-0Zm-0.109,-0l0.02,-0.113l0.362,0l-0.02,0.113l-0.362,-0Zm0.288,-0.25l0.006,-0.16l0.027,0c0.011,-0.038 0.03,-0.067 0.055,-0.087c0.025,-0.021 0.057,-0.031 0.096,-0.031c0.052,0 0.089,0.018 0.11,0.053c0.021,0.036 0.026,0.088 0.014,0.157l-0.135,0c0.005,-0.028 0.002,-0.049 -0.006,-0.063c-0.009,-0.015 -0.023,-0.022 -0.043,-0.022c-0.019,0 -0.036,0.005 -0.053,0.014c-0.017,0.009 -0.031,0.025 -0.043,0.048c-0.012,0.022 -0.022,0.052 -0.028,0.091Z" style="fill:#94f20d;fill-rule:nonzero;"/></g><g transform="matrix(50,0,0,50,357.234701,1575.536465)"><path d="M0.302,-0.116c0.023,0 0.049,-0.004 0.075,-0.011c0.027,-0.007 0.052,-0.017 0.077,-0.03l0.034,0.116c-0.031,0.018 -0.064,0.031 -0.099,0.039c-0.035,0.008 -0.069,0.012 -0.101,0.012c-0.072,0 -0.128,-0.018 -0.168,-0.055c-0.04,-0.037 -0.06,-0.088 -0.06,-0.154c0,-0.066 0.013,-0.123 0.04,-0.172c0.026,-0.049 0.063,-0.087 0.111,-0.115c0.047,-0.027 0.103,-0.041 0.166,-0.041c0.053,0 0.095,0.013 0.125,0.04c0.03,0.027 0.045,0.064 0.045,0.111c0,0.063 -0.032,0.109 -0.097,0.138c-0.064,0.029 -0.159,0.045 -0.282,0.047l-0.02,-0.093c0.085,-0.001 0.151,-0.008 0.198,-0.023c0.047,-0.014 0.071,-0.034 0.071,-0.059c0,-0.013 -0.005,-0.022 -0.016,-0.03c-0.011,-0.007 -0.027,-0.011 -0.047,-0.011c-0.033,0 -0.063,0.008 -0.088,0.024c-0.025,0.016 -0.045,0.038 -0.059,0.067c-0.014,0.029 -0.021,0.062 -0.022,0.1c0,0.031 0.011,0.056 0.032,0.073c0.021,0.018 0.05,0.026 0.087,0.026Z" style="fill:#94f20d;fill-rule:nonzero;"/></g><g transform="matrix(50,0,0,50,386.531576,1575.536465)"><path d="M0.167,0.01c-0.047,0 -0.084,-0.013 -0.11,-0.038c-0.026,-0.025 -0.039,-0.061 -0.039,-0.107c0,-0.06 0.013,-0.113 0.039,-0.162c0.026,-0.048 0.062,-0.089 0.109,-0.124c0.047,-0.034 0.101,-0.061 0.163,-0.079c0.062,-0.018 0.13,-0.028 0.203,-0.028l0.009,0l-0.079,0.125c-0.058,0.002 -0.11,0.014 -0.156,0.034c-0.047,0.02 -0.084,0.047 -0.111,0.08c-0.028,0.033 -0.041,0.071 -0.041,0.113c0,0.021 0.005,0.036 0.015,0.045c0.01,0.01 0.025,0.015 0.045,0.015c0.04,0 0.074,-0.018 0.103,-0.055c0.029,-0.037 0.049,-0.089 0.062,-0.155l-0.002,0.216l-0.057,0l0.051,-0.076c-0.016,0.062 -0.041,0.11 -0.076,0.144c-0.035,0.034 -0.078,0.051 -0.127,0.051Zm0.333,-0.005c-0.019,0 -0.037,-0.001 -0.055,-0.004c-0.018,-0.002 -0.034,-0.008 -0.048,-0.016c-0.014,-0.008 -0.024,-0.021 -0.03,-0.038c-0.006,-0.017 -0.007,-0.04 -0.001,-0.069l0.009,-0.18l0.041,-0.229c0.006,-0.03 0.005,-0.052 -0.003,-0.066c-0.007,-0.014 -0.021,-0.021 -0.04,-0.021c-0.01,0 -0.02,0.001 -0.03,0.002c-0.01,0.002 -0.02,0.004 -0.031,0.008l-0.016,-0.123c0.015,-0.004 0.029,-0.007 0.044,-0.009c0.015,-0.002 0.03,-0.004 0.045,-0.004c0.067,0 0.114,0.02 0.14,0.059c0.027,0.039 0.032,0.102 0.017,0.187l-0.055,0.316c-0.003,0.018 -0.004,0.033 -0.003,0.043c0.001,0.011 0.006,0.018 0.016,0.023c0.009,0.005 0.025,0.007 0.048,0.007l0.021,0l-0.02,0.112l-0.048,0Z" style="fill:#94f20d;fill-rule:nonzero;"/></g><g transform="matrix(50,0,0,50,415.828451,1575.536465)"></g><g transform="matrix(50,0,0,50,445.125326,1575.536465)"><path d="M0.024,-0l0.122,-0.693l0.13,0l-0.122,0.693l-0.13,-0Zm0.106,-0.374l0.016,-0.053l0.136,0c0.046,0 0.081,-0.007 0.105,-0.022c0.024,-0.014 0.036,-0.036 0.036,-0.064c0,-0.049 -0.04,-0.073 -0.12,-0.073c-0.07,0 -0.128,0.003 -0.173,0.01l0.016,-0.119c0.038,-0.007 0.086,-0.01 0.144,-0.01c0.088,0 0.155,0.014 0.2,0.043c0.045,0.029 0.068,0.071 0.068,0.127c0,0.052 -0.022,0.092 -0.066,0.119c-0.044,0.027 -0.11,0.041 -0.196,0.041l-0.165,0Zm-0.016,0.374l0.017,-0.119l0.079,0c0.067,0 0.118,-0.009 0.152,-0.027c0.035,-0.018 0.052,-0.044 0.052,-0.078c0,-0.028 -0.012,-0.049 -0.035,-0.062c-0.023,-0.014 -0.057,-0.021 -0.103,-0.021l-0.102,0l-0.005,-0.052l0.162,0c0.071,0 0.125,0.013 0.162,0.039c0.037,0.026 0.055,0.064 0.055,0.115c0,0.068 -0.028,0.119 -0.083,0.154c-0.056,0.035 -0.138,0.052 -0.246,0.052l-0.105,-0Zm0.027,-0.341l0.008,-0.048l0.204,0l-0.008,0.048l-0.204,0Z" style="fill:#94f20d;fill-rule:nonzero;"/></g><g transform="matrix(50,0,0,50,474.422201,1575.536465)"><path d="M0.001,0.23l-0.059,-0.115c0.076,-0.03 0.141,-0.065 0.197,-0.104c0.056,-0.039 0.103,-0.084 0.143,-0.135c0.039,-0.051 0.072,-0.109 0.097,-0.174c0.025,-0.065 0.045,-0.138 0.06,-0.22l0.135,0c-0.025,0.13 -0.061,0.242 -0.109,0.338c-0.048,0.095 -0.11,0.176 -0.186,0.243c-0.076,0.067 -0.169,0.123 -0.278,0.167Zm0.168,-0.758c0.046,0.189 0.107,0.332 0.183,0.429l-0.111,0.068c-0.041,-0.061 -0.079,-0.132 -0.113,-0.213c-0.034,-0.081 -0.066,-0.173 -0.095,-0.275l0.135,-0.01Z" style="fill:#94f20d;fill-rule:nonzero;"/></g><g transform="matrix(50,0,0,50,503.719076,1575.536465)"><path d="M0.325,-0.35c-0.025,0 -0.046,-0.009 -0.063,-0.026c-0.017,-0.017 -0.026,-0.038 -0.026,-0.063c0,-0.025 0.009,-0.046 0.026,-0.063c0.017,-0.017 0.038,-0.026 0.063,-0.026c0.025,0 0.046,0.009 0.063,0.026c0.017,0.017 0.026,0.038 0.026,0.063c0,0.024 -0.009,0.045 -0.026,0.063c-0.017,0.017 -0.038,0.026 -0.063,0.026Zm-0.063,0.359c-0.025,0 -0.046,-0.009 -0.063,-0.026c-0.017,-0.017 -0.026,-0.038 -0.026,-0.063c0,-0.025 0.009,-0.046 0.026,-0.063c0.017,-0.017 0.038,-0.026 0.063,-0.026c0.025,0 0.046,0.009 0.063,0.026c0.017,0.017 0.026,0.038 0.026,0.063c0,0.024 -0.009,0.045 -0.026,0.063c-0.017,0.017 -0.038,0.026 -0.063,0.026Z" style="fill:#94f20d;fill-rule:nonzero;"/></g><g transform="matrix(50,0,0,50,533.015951,1575.536465)"></g><g transform="matrix(50,0,0,50,562.312826,1575.536465)"><path d="M0.242,0.01c-0.082,0 -0.142,-0.022 -0.179,-0.065c-0.038,-0.043 -0.049,-0.104 -0.032,-0.181l0.134,0c-0.006,0.039 -0.002,0.069 0.014,0.091c0.015,0.022 0.041,0.032 0.076,0.032c0.039,0 0.07,-0.01 0.093,-0.029c0.023,-0.019 0.038,-0.049 0.045,-0.09l0.081,-0.461l0.13,0l-0.081,0.461c-0.015,0.083 -0.045,0.144 -0.09,0.183c-0.045,0.039 -0.109,0.059 -0.19,0.059Zm0.054,-0.584l0.021,-0.119l0.226,0l-0.021,0.119l-0.226,0Z" style="fill:#94f20d;fill-rule:nonzero;"/></g><g transform="matrix(50,0,0,50,591.609701,1575.536465)"><path d="M0.247,0.01c-0.065,0 -0.115,-0.022 -0.149,-0.065c-0.034,-0.043 -0.051,-0.107 -0.051,-0.192c0,-0.1 0.012,-0.184 0.037,-0.251c0.024,-0.068 0.061,-0.119 0.109,-0.153c0.048,-0.034 0.108,-0.052 0.179,-0.052c0.065,0 0.114,0.021 0.148,0.064c0.033,0.042 0.05,0.105 0.05,0.188c0,0.101 -0.012,0.186 -0.037,0.254c-0.024,0.069 -0.061,0.12 -0.108,0.155c-0.048,0.035 -0.107,0.052 -0.178,0.052Zm0.045,-0.263c-0.015,0 -0.027,-0.007 -0.035,-0.02c-0.008,-0.013 -0.012,-0.031 -0.012,-0.055c0,-0.033 0.007,-0.059 0.021,-0.077c0.014,-0.018 0.033,-0.028 0.058,-0.028c0.015,0 0.027,0.006 0.035,0.019c0.008,0.012 0.012,0.03 0.012,0.052c0,0.034 -0.007,0.061 -0.021,0.08c-0.014,0.019 -0.034,0.029 -0.059,0.029Zm-0.024,0.14c0.036,0 0.067,-0.013 0.092,-0.038c0.025,-0.025 0.043,-0.062 0.056,-0.112c0.013,-0.049 0.019,-0.111 0.019,-0.184c0,-0.044 -0.007,-0.077 -0.021,-0.1c-0.014,-0.023 -0.035,-0.034 -0.063,-0.034c-0.036,0 -0.067,0.012 -0.092,0.037c-0.025,0.025 -0.043,0.062 -0.056,0.111c-0.013,0.049 -0.019,0.11 -0.019,0.182c0,0.045 0.007,0.078 0.021,0.102c0.014,0.023 0.035,0.035 0.063,0.035Z" style="fill:#94f20d;fill-rule:nonzero;"/></g><g transform="matrix(50,0,0,50,620.906576,1575.536465)"><path d="M0.088,0.02l-0.096,-0.088l0.288,-0.308l0.229,-0.337l0.101,0.088l-0.288,0.333l-0.233,0.312Zm0.326,-0.01c-0.046,0 -0.084,-0.012 -0.114,-0.036c-0.03,-0.024 -0.045,-0.062 -0.047,-0.115l-0.013,-0.381c-0.001,-0.02 -0.006,-0.034 -0.016,-0.044c-0.01,-0.009 -0.023,-0.014 -0.039,-0.014c-0.023,0 -0.045,0.006 -0.067,0.017l-0.029,-0.114c0.023,-0.009 0.044,-0.016 0.062,-0.02c0.019,-0.004 0.036,-0.006 0.052,-0.006c0.029,0 0.054,0.005 0.076,0.016c0.022,0.011 0.04,0.027 0.053,0.049c0.013,0.022 0.021,0.051 0.021,0.085l0.013,0.381c0.001,0.02 0.007,0.034 0.019,0.044c0.012,0.009 0.027,0.014 0.046,0.014c0.022,0 0.045,-0.007 0.067,-0.022l0.029,0.114c-0.02,0.011 -0.039,0.019 -0.057,0.024c-0.019,0.005 -0.038,0.008 -0.058,0.008Z" style="fill:#94f20d;fill-rule:nonzero;"/></g><g transform="matrix(50,0,0,50,650.203451,1575.536465)"></g></g><defs><linearGradient id="_Linear1" x1="0" y1="0" x2="1" y2="0" gradientUnits="userSpaceOnUse" gradientTransform="matrix(1776.529948,596.516927,-596.516927,1776.529948,149.715169,546.273431)"><stop offset="0" style="stop-color:#8b5cf6;stop-opacity:1"/><stop offset="1" style="stop-color:#3b82f6;stop-opacity:1"/></linearGradient></defs></svg>